<svg version="1.1" id="Слой_1" xmlns="http://www.w3.org/2000/svg" x="0" y="0" viewBox="0 0 1000 1000" xml:space="preserve"><style>.st1{display:none;fill:#fff}.st4{fill:#ff5c57}.st5{fill:#fff}</style><g id="Orange"><g id="diploma"><path class="st1" d="M335 644s59.64-44.01 127-55c93.95-15.32 178.99 26.15 180 22 1.04-4.26-81.71-41.5-182-36-78.32 4.3-151 48-151 48l26 21z"/><path id="funnel" class="st4" d="M302.46 597.92c26.25 6.06 56.54-10.1 64.62 20.19 8.26 30.98-40.8 73.61-82.79 62.6-32.61-8.55-56.83-39.98-50.48-70.67 6.62-32.02 44.71-44.32 52.5-48.46-6.06 10.09 3.71 33.47 16.15 36.34z"/><path id="funnel_1_" class="st5" d="M294.07 614.5c16.42 1.58 33.77-9.83 40.66 8.09 7.05 18.32-20.05 47.48-46.33 43.51-20.42-3.08-37.21-20.64-35.34-39.74 1.95-19.93 17.67-32.46 22.15-35.49-3.04 6.53 4.03 22.2 18.86 23.63z"/></g><path id="_x5F_body_1_" class="st4" d="M988 391.87c-46.03 29.5-67.27 93.23-200.62 100.31-230.58 12.24-286.18-78.48-474.41-55.47C146.29 457.09 19.7 534.08 30.32 685.13c7.47 106.19 145.34 145.06 261.99 139.26 205.84-10.25 300.34-253.14 302.7-268.48-16.52 9.44-115.46 194.97-302.7 197.67-83.39 1.2-167.58-21.24-178.2-86.15-12.42-75.93 93.64-148.5 214.78-159.32 198.26-17.7 234.53 50.02 437.24 39.53 136.9-7.07 213.61-129.81 221.87-155.77z"/><path id="body_5_" class="st5" d="M988 391.87c-46.03 29.5-84.97 61.37-218.32 68.45-230.58 12.24-286.18-78.48-474.41-55.47C128.58 425.23 2 502.21 12.62 653.27c7.47 106.19 145.34 145.06 261.99 139.26 205.84-10.25 317.46-220.68 319.82-236.03-16.52 9.44-132.57 162.52-319.82 165.22-83.39 1.2-167.58-21.24-178.2-86.15-12.42-75.93 93.64-148.5 214.78-159.32 198.26-17.7 234.53 50.02 437.24 39.53 136.9-7.08 231.31-97.95 239.57-123.91z"/><path id="_x5F_head" class="st4" d="M441.22 371.62s-125.66-7.05-220.27 21.23c-107.66 32.17-177.08 79.41-177.08 79.41s14.61-60.43 72.41-125.1c60.74-67.96 93.33-84.81 93.33-84.81s94.18-43.49 186.32-54.55c123.97-14.87 205.87 8.16 205.87 8.16s-42.46 19.53-88.45 64.78c-38.07 37.46-72.13 90.88-72.13 90.88z"/><path id="head" class="st1" d="M456 412s-106.52-5.11-186.5 19.5C178.5 459.5 120 500 120 500s11.97-51.3 60.5-106.5c51-58 78.5-72.5 78.5-72.5s79.5-37.5 157.5-47.5C521.44 260.05 591 279 591 279s-35.84 16.84-74.5 55.5c-32 32-60.5 77.5-60.5 77.5z"/><path id="head2" class="st5" d="M592.59 187.57s-42.46 19.53-88.45 64.78c-4.7 4.62-9.34 9.5-13.85 14.47-2.29-2.24-28.82-27.26-72.77-28.75-62.56-2.11-125.33 28.49-125.33 28.49l1.15 3.55s62.77-30.61 124.15-28.5c44.14 1.51 69.78 26.91 70.56 27.69-31.07 34.76-56.04 73.92-56.04 73.92s-125.65-7.05-220.27 21.23c-107.66 32.17-177.08 79.41-177.08 79.41s14.62-60.42 72.41-125.1c60.74-67.96 93.33-84.81 93.33-84.81s94.18-43.49 186.32-54.55c123.96-14.86 205.87 8.17 205.87 8.17z"/><g id="ribbon2"><path id="_x5F_body_8_" d="M500.02 274.45c15.86 12.5 33.23 26.31 66.09 28.32 57.83 3.54 89.69-61.37 181.74-38.94" fill="none" stroke="#ff5c57" stroke-width="3" stroke-miterlimit="10"/><path id="body_11_" d="M488.21 267.19c15.86 12.5 33.23 26.31 66.09 28.32 57.83 3.54 89.69-61.37 181.74-38.94" fill="none" stroke="#fff" stroke-width="3" stroke-miterlimit="10"/><g id="_x5F_tassel"><path class="st4" d="M743.85 264.31c9.8-2.13 19.52 2.6 29.32 2.79 1.93.04 1.93-2.96 0-3-10.14-.19-19.91-4.91-30.11-2.68-1.9.4-1.1 3.3.79 2.89z"/><path class="st4" d="M744.49 266.5c8.48 2.37 16.42 6.36 25.41 6.18 1.93-.04 1.93-3.04 0-3-8.71.17-16.41-3.78-24.61-6.08-1.87-.52-2.66 2.37-.8 2.9z"/><path class="st4" d="M741.58 267.86c9.15 3.68 17.45 8.93 27.41 10.14 1.91.23 1.9-2.77 0-3-9.58-1.17-17.81-6.5-26.61-10.04-1.79-.71-2.57 2.19-.8 2.9zm6.65-2.14c10.44.37 20.22 4.3 30.49 5.79 1.89.27 2.7-2.62.8-2.89-10.54-1.53-20.56-5.51-31.28-5.9-1.94-.07-1.94 2.93-.01 3z"/><path class="st4" d="M757.13 273.22l9.79.78c2.81.22 7.6-.2 9.89 1.55 1.53 1.17 3.03-1.43 1.51-2.59-2.29-1.74-5.67-1.51-8.39-1.72l-12.81-1.02c-1.91-.16-1.9 2.84.01 3z"/></g><g id="tassel_1_"><path class="st5" d="M734.41 254.86c9.8-2.13 19.52 2.6 29.32 2.79 1.93.04 1.93-2.96 0-3-10.14-.19-19.91-4.91-30.11-2.68-1.9.41-1.1 3.3.79 2.89z"/><path class="st5" d="M735.05 257.05c8.48 2.37 16.42 6.36 25.41 6.18 1.93-.04 1.93-3.04 0-3-8.71.17-16.41-3.78-24.61-6.08-1.87-.51-2.66 2.38-.8 2.9z"/><path class="st5" d="M732.14 258.42c9.15 3.68 17.45 8.93 27.41 10.14 1.91.23 1.9-2.77 0-3-9.58-1.17-17.81-6.5-26.61-10.04-1.79-.71-2.57 2.19-.8 2.9zm6.65-2.15c10.44.37 20.22 4.3 30.49 5.79 1.89.27 2.7-2.62.8-2.89-10.54-1.53-20.56-5.51-31.28-5.9-1.94-.06-1.94 2.94-.01 3z"/><path class="st5" d="M747.69 263.78l9.79.78c2.81.22 7.6-.2 9.89 1.55 1.53 1.17 3.03-1.43 1.51-2.59-2.29-1.74-5.67-1.51-8.39-1.72l-12.81-1.02c-1.91-.16-1.9 2.84.01 3z"/></g></g></g></svg>